<svg class="icon" width="200" height="200" viewBox="0 0 1024 1024" xmlns="http://www.w3.org/2000/svg"><path d="M117.76 191.488c53.248 63.488 114.688 120.832 181.248 171.008C363.52 410.624 435.2 453.632 512 489.472c71.68-31.744 143.36-74.752 212.992-126.976 72.704-54.272 133.12-111.616 180.224-171.008 5.12-5.12-256-37.888-393.216-37.888s-398.336 31.744-394.24 37.888zm812.032-5.12c1.024 0 1.024 0 0 0 1.024 0 1.024 0 0 0zm6.144 4.096s0-1.024 0 0c0-1.024 0 0 0 0zm-851.968 5.12c1.024-1.024 1.024-1.024 0 0 1.024-1.024 1.024-1.024 0 0zm856.064-1.024c-1.024 0-1.024 0 0 0-1.024 0-1.024 0 0 0z"/><path d="M937.984 218.112c-49.152 61.44-112.64 120.832-188.416 177.152-74.752 56.32-152.576 101.376-229.376 135.168-3.072 1.024-5.12 2.048-8.192 2.048s-6.144-1.024-8.192-2.048c-82.944-37.888-159.744-83.968-229.376-135.168C204.8 343.04 142.336 283.648 87.04 218.112 82.944 212.992 51.2 408.576 51.2 512s10.24 207.872 30.72 311.296c2.048 8.192 8.192 15.36 17.408 16.384C236.544 860.16 374.784 870.4 512 870.4s275.456-10.24 412.672-30.72c8.192-1.024 15.36-8.192 17.408-16.384C962.56 719.872 972.8 615.424 972.8 512s-30.72-299.008-34.816-293.888z"/></svg>