<svg class="icon" width="200" height="200" viewBox="0 0 1024 1024" xmlns="http://www.w3.org/2000/svg"><path d="M1015.096 254.145c-4.452-4.452-8.904-6.678-13.357-6.678h-193.67a19.952 19.952 0 0 0-20.035 20.035v6.678a19.952 19.952 0 0 0 20.035 20.035H943.86L837.008 401.067c-42.296-33.391-93.496-53.426-146.922-53.426-44.522 0-89.043 13.357-126.887 37.843-17.809-8.904-37.843-15.583-60.104-20.035-117.983-20.035-231.513 53.426-264.904 166.957l-91.27-15.583 13.357-73.461c2.226-11.13-4.452-20.035-15.583-22.261l-6.678-2.226c-11.13-2.226-20.035 4.452-22.261 15.583l-13.357 75.687-73.461-13.357c-11.13-2.226-20.035 4.452-22.261 15.583l-2.226 6.678c-2.226 11.13 4.452 20.035 15.583 22.261l73.461 13.357-13.357 73.461c-2.226 11.13 4.452 20.035 15.583 22.261l6.678 2.226c11.13 2.226 20.035-4.452 22.261-15.583l13.357-73.461 91.27 15.583c-8.904 117.983 73.461 224.835 191.443 244.87 13.357 2.226 26.713 4.452 40.07 4.452 44.522 0 86.817-13.357 124.661-37.843 31.165 15.583 64.557 22.261 100.174 22.261 60.104 0 117.983-22.261 164.73-69.009 84.591-84.591 91.27-220.383 15.583-311.652L972.8 325.381V456.72a19.952 19.952 0 0 0 20.035 20.035h8.904a19.952 19.952 0 0 0 20.035-20.035V263.05c-2.226 0-4.452-4.452-6.678-8.904zM614.4 490.11c28.939 40.07 40.07 89.043 31.165 138.017-6.678 42.296-28.939 80.139-60.104 106.852-8.904-6.678-20.035-13.357-28.939-22.261-73.461-73.461-73.461-189.217 0-262.678l8.904-8.904c17.809 13.357 35.617 31.165 48.974 48.974zM429.635 779.501c-100.174-17.809-169.183-113.53-151.374-215.93 15.583-89.043 93.496-153.6 182.539-153.6 11.13 0 22.261 0 33.391 2.226l26.713 6.678c-86.817 91.27-86.817 235.965 2.226 325.009 6.678 6.678 13.357 11.13 20.035 17.809-35.617 20.035-73.461 24.487-113.53 17.809zM819.2 712.719c-51.2 51.2-124.661 66.783-189.217 44.522 31.165-33.391 53.426-75.687 62.33-120.209 11.13-60.104-2.226-122.435-37.843-173.635-13.357-17.809-28.939-35.617-44.522-48.974 24.487-11.13 53.426-17.809 80.139-17.809 48.974 0 95.722 20.035 131.339 53.426 71.235 73.461 71.235 191.443-2.226 262.678z"/></svg>